<svg xmlns="http://www.w3.org/2000/svg" version="1.1" xmlns:xlink="http://www.w3.org/1999/xlink" xmlns:svgjs="http://svgjs.com/svgjs" width="1600" height="900" preserveAspectRatio="none" viewBox="0 0 1600 900">
    <g mask="url(&quot;#SvgjsMask1025&quot;)" fill="none">
        <rect width="1600" height="900" x="0" y="0" fill="rgba(211, 50, 199, 0.35)"></rect>
        <path d="M1600 0L851.52 0L1600 339.91z" fill="rgba(255, 255, 255, .1)"></path>
        <path d="M851.52 0L1600 339.91L1600 621.55L590.77 0z" fill="rgba(255, 255, 255, .075)"></path>
        <path d="M590.77 0L1600 621.55L1600 701.73L280.75 0z" fill="rgba(255, 255, 255, .05)"></path>
        <path d="M280.75 0L1600 701.73L1600 743.6L194.07 0z" fill="rgba(255, 255, 255, .025)"></path>
        <path d="M0 900L566.31 900L0 578.95z" fill="rgba(0, 0, 0, .1)"></path>
        <path d="M0 578.95L566.31 900L591.9899999999999 900L0 270.86000000000007z" fill="rgba(0, 0, 0, .075)"></path>
        <path d="M0 270.86L591.9899999999999 900L720.1799999999998 900L0 165.65000000000003z" fill="rgba(0, 0, 0, .05)"></path>
        <path d="M0 165.64999999999998L720.1799999999998 900L852.0799999999998 900L0 81.42999999999998z" fill="rgba(0, 0, 0, .025)"></path>
    </g>
    <defs>
        <mask id="SvgjsMask1025">
            <rect width="1600" height="900" fill="#ffffff"></rect>
        </mask>
    </defs>
</svg>